# xmcd
#
# Track frame offsets: 
#        150
#        18802
#        41993
#        61474
#        93572
#        108933
#        120414
#        142822
#        186070
#        194289
#        207939
#
# Disc length: 3040 seconds
#
# Revision: 9
# Processed by: cddbd v1.5.2PL0 Copyright (c) Steve Scherf et al.
# Submitted via: ExactAudioCopy v0.99pb4
#
DISCID=920bde0b
DTITLE=Joe Bonamassa - You and Me
DYEAR=2006
DGENRE=Blues
TTITLE0=High Water Everywhere
TTITLE1=Bridge to Better Days
TTITLE2=Asking Around for You
TTITLE3=So Many Roads
TTITLE4=I Don't Believe
TTITLE5=Tamp Em Up Solid
TTITLE6=Django
TTITLE7=Tea for One
TTITLE8=Palm Trees Helicopters and Gasoline
TTITLE9=Your Funeral and My Trial
TTITLE10=Torn Down
EXTD=YEAR: 2006 ID3G:  17
EXTT0=
EXTT1=
EXTT2=
EXTT3=
EXTT4=
EXTT5=
EXTT6=
EXTT7=
EXTT8=
EXTT9=
EXTT10=
PLAYORDER=
